<svg width="96" height="96" version="1.1" xmlns="http://www.w3.org/2000/svg" desc="Created with imagetracer.js version 1.2.6" ><path fill="rgb(25,107,247)" stroke="rgb(25,107,247)" stroke-width="1" opacity="1" d="M 14 18 L 44 18.5 Q 26.8 24.3 14.5 35 L 14 18 Z " /><path fill="rgb(26,126,241)" stroke="rgb(26,126,241)" stroke-width="1" opacity="1" d="M 44.5 18 L 63 18.5 Q 33.4 25.4 14.5 43 L 14 35.5 Q 26.8 24.3 44.5 18 Z " /><path fill="rgb(28,145,234)" stroke="rgb(28,145,234)" stroke-width="1" opacity="1" d="M 77.5 19 L 82 19 L 82 25 L 63.5 28 L 56.5 30 L 54 32.5 L 53.5 34 L 53 32.5 L 54 26 L 52 25.5 L 77.5 19 Z " /><path fill="rgb(28,145,234)" stroke="rgb(28,145,234)" stroke-width="1" opacity="1" d="M 45.5 28 Q 48.5 27.5 47 34.5 L 45.5 38 L 44.5 35 L 36 41.5 L 35.5 43 L 35 41.5 L 40 36.5 L 40 33.5 L 38.5 31 L 45.5 28 Z " /><path fill="rgb(28,145,234)" stroke="rgb(28,145,234)" stroke-width="1" opacity="1" d="M 29.5 36 L 27 39.5 L 26 41.5 L 29.5 46 L 27.5 45 L 14.5 57 L 14 48.5 L 29.5 36 Z " /><path fill="rgb(0,0,0)" stroke="rgb(0,0,0)" stroke-width="1" opacity="0" d="M 0 0 L 96 0 L 96 96 L 0 96 L 0 0 Z M 12 14 L 10 16 L 10 69 L 12 70 L 40 70 L 40 76 L 28 76 L 28 84 L 29 84 L 68 84 L 68 76 L 56 76 L 56 71 L 57 70 L 85 70 L 86 69 L 86 16 L 85 14 L 12 14 Z " /><path fill="rgb(34,155,210)" stroke="rgb(34,155,210)" stroke-width="1" opacity="1" d="M 49.5 27 Q 53.3 26.3 54 28.5 L 53.5 32 L 53 28 L 48.5 29 L 49.5 27 Z " /><path fill="rgb(34,155,210)" stroke="rgb(34,155,210)" stroke-width="1" opacity="1" d="M 58.5 32 L 60.5 32 L 69 40.5 L 68.5 43 L 66.5 39 L 58.5 33 L 57 36.5 L 62 42.5 L 56 47.5 L 60 41.5 L 55 35.5 L 58.5 32 Z " /><path fill="rgb(34,155,210)" stroke="rgb(34,155,210)" stroke-width="1" opacity="1" d="M 35.5 33 L 28.5 41 L 35.5 33 Z " /><path fill="rgb(34,155,210)" stroke="rgb(34,155,210)" stroke-width="1" opacity="1" d="M 52.5 33 L 53 38.5 L 49.5 51 L 49 47.5 L 52.5 33 Z " /><path fill="rgb(34,155,210)" stroke="rgb(34,155,210)" stroke-width="1" opacity="1" d="M 39.5 35 L 40 36.5 L 35 43 L 40 46.5 L 41 48.5 L 38.5 52 L 35.5 52 L 30 46.5 L 28 43.5 L 36.5 51 L 39 49.5 L 39 47.5 L 34 41.5 L 39.5 35 Z " /><path fill="rgb(34,155,210)" stroke="rgb(34,155,210)" stroke-width="1" opacity="1" d="M 46.5 35 L 47 37.5 L 42.5 57 L 42 51.5 L 44 45.5 L 44 40.5 L 46.5 35 Z " /><path fill="rgb(34,155,210)" stroke="rgb(34,155,210)" stroke-width="1" opacity="1" d="M 56.5 49 L 57.5 51 L 56.5 49 Z " /><path fill="rgb(34,155,210)" stroke="rgb(34,155,210)" stroke-width="1" opacity="1" d="M 48.5 52 L 49 54.5 L 48 54.5 L 48.5 52 Z " /><path fill="rgb(32,176,223)" stroke="rgb(32,176,223)" stroke-width="1" opacity="1" d="M 75.5 34 L 82 34 L 82 45 L 76.5 45 L 67.5 48 L 66.5 47 L 61.5 52 L 58.5 53 L 55.5 52 L 49 55 L 47.5 58 L 43 58 Q 44.1 60.7 41.5 60 L 34.5 66 L 19.5 66 L 20 64.5 L 24.5 59 L 33.5 52 Q 38.8 53.3 40 50.5 L 42.5 46 L 44 51.5 L 42 51.5 L 42.5 57 L 46.5 56 L 48 56.5 L 52 41 L 58.5 40 L 60 42.5 L 56 47.5 L 57.5 51 L 64 48 L 64 46 Q 66.7 47.1 66 44.5 L 69 43 L 68.5 40 Q 67.3 42.3 66 39.5 L 67 38.5 L 65.5 36 L 75.5 34 Z " /><path fill="rgb(27,135,236)" stroke="rgb(27,135,236)" stroke-width="1" opacity="1" d="M 63.5 18 L 82 18.5 L 66.5 21 L 52 25.5 L 54 26 L 53.5 28 L 48 27 L 47.5 32 L 47 28 L 38 31.5 L 40 34.5 L 36.5 32 L 28 40.5 L 27.5 43 Q 24.8 41.8 27 40.5 L 28 38.5 L 26.5 38 L 14.5 48 L 14 43.5 Q 33.4 25.4 63.5 18 Z " /><path fill="rgb(233,244,250)" stroke="rgb(233,244,250)" stroke-width="1" opacity="1" d="M 49 28 Q 54.2 25.9 53 30.5 L 49 45.5 L 48 54.5 L 46.5 56 Q 41.7 57.7 43 53.5 L 49 28 Z " /><path fill="rgb(233,244,250)" stroke="rgb(233,244,250)" stroke-width="1" opacity="1" d="M 36.5 33 L 39 36.5 L 34 42.5 L 39 48.5 L 36.5 51 L 28 42.5 L 36.5 33 Z " /><path fill="rgb(233,244,250)" stroke="rgb(233,244,250)" stroke-width="1" opacity="1" d="M 59.5 33 L 68 42.5 L 59.5 51 L 57 48.5 L 62 41.5 L 57 35.5 L 59.5 33 Z " /><path fill="rgb(29,161,230)" stroke="rgb(29,161,230)" stroke-width="1" opacity="1" d="M 77.5 25 L 82 25 L 82 34 L 64.5 36 L 60.5 32 L 58.5 32 L 55 36.5 L 57.5 40 L 52 41 L 53 34.5 L 56.5 30 L 77.5 25 Z " /><path fill="rgb(29,161,230)" stroke="rgb(29,161,230)" stroke-width="1" opacity="1" d="M 44.5 35 L 45 39.5 L 44 46 L 40.5 48 L 36 41.5 L 44.5 35 Z " /><path fill="rgb(29,161,230)" stroke="rgb(29,161,230)" stroke-width="1" opacity="1" d="M 27.5 45 L 35 51.5 L 20 63.5 L 18.5 66 L 14 66 L 14 57.5 L 27.5 45 Z " /><path fill="rgb(33,196,220)" stroke="rgb(33,196,220)" stroke-width="1" opacity="1" d="M 76.5 45 Q 81.9 44.4 82 45.5 L 82 66 L 35 65.5 L 43 60 Q 41.6 56.3 47.5 58 L 49 55 L 57.5 52 L 59.5 53 L 66.5 47 L 68.5 47 L 76.5 45 Z " /><path fill="rgb(33,196,220)" stroke="rgb(33,196,220)" stroke-width="1" opacity="1" d="M 57.5 49 L 58.5 51 L 57.5 49 Z " /><path fill="rgb(151,160,168)" stroke="rgb(151,160,168)" stroke-width="1" opacity="0.9882352941176471" d="M 11.5 14 L 84.5 14 L 86 15.5 L 86 68.5 L 84.5 70 L 11.5 70 L 10 68.5 L 10 15.5 L 11.5 14 Z M 14 18 L 14 66 L 82 66 L 82 18 L 14 18 Z " /><path fill="rgb(151,160,168)" stroke="rgb(151,160,168)" stroke-width="1" opacity="0.9882352941176471" d="M 37.5 33 L 38.5 35 L 37.5 33 Z " /><path fill="rgb(110,120,128)" stroke="rgb(110,120,128)" stroke-width="1" opacity="0.9882352941176471" d="M 40 70 L 56 70 L 56 76 L 68 76 L 68 84 L 28.5 84 L 28 83.5 L 28 76 L 40 76 L 40 70 Z " /></svg>