<svg width="94" height="94" version="1.1" xmlns="http://www.w3.org/2000/svg" desc="Created with imagetracer.js version 1.2.6" ><path fill="rgb(27,56,145)" stroke="rgb(27,56,145)" stroke-width="1" opacity="0.03529411764705882" d="M 79.5 25 L 81 28.5 L 80 28.5 L 79.5 25 Z " /><path fill="rgb(27,56,145)" stroke="rgb(27,56,145)" stroke-width="1" opacity="0.03529411764705882" d="M 80.5 33 L 81 35.5 L 80 35.5 L 80.5 33 Z " /><path fill="rgb(27,56,145)" stroke="rgb(27,56,145)" stroke-width="1" opacity="0.03529411764705882" d="M 13 34 L 15 34.5 L 13 35.5 L 13 34 Z " /><path fill="rgb(27,56,145)" stroke="rgb(27,56,145)" stroke-width="1" opacity="0.03529411764705882" d="M 79.5 37 L 80 39.5 L 79 39.5 L 79.5 37 Z " /><path fill="rgb(27,56,145)" stroke="rgb(27,56,145)" stroke-width="1" opacity="0.03529411764705882" d="M 81.5 38 L 82 41.5 L 81 41.5 L 81.5 38 Z " /><path fill="rgb(27,56,145)" stroke="rgb(27,56,145)" stroke-width="1" opacity="0.03529411764705882" d="M 12.5 43 L 13 54.5 L 12 54.5 L 12.5 43 Z " /><path fill="rgb(27,56,145)" stroke="rgb(27,56,145)" stroke-width="1" opacity="0.03529411764705882" d="M 14.5 43 L 15 54.5 L 14 54.5 L 14.5 43 Z " /><path fill="rgb(27,56,145)" stroke="rgb(27,56,145)" stroke-width="1" opacity="0.03529411764705882" d="M 79 43 Q 83 41.6 81 48.5 L 80 48.5 L 79 43 Z " /><path fill="rgb(27,56,145)" stroke="rgb(27,56,145)" stroke-width="1" opacity="0.03529411764705882" d="M 80.5 53 L 81.5 55 L 80.5 53 Z " /><path fill="rgb(27,56,145)" stroke="rgb(27,56,145)" stroke-width="1" opacity="0.03529411764705882" d="M 12.5 58 L 13 63.5 L 12 63.5 L 12.5 58 Z " /><path fill="rgb(27,56,145)" stroke="rgb(27,56,145)" stroke-width="1" opacity="0.03529411764705882" d="M 14.5 58 L 15 75.5 L 13 76.5 L 14 75.5 L 14.5 58 Z " /><path fill="rgb(27,56,145)" stroke="rgb(27,56,145)" stroke-width="1" opacity="0.03529411764705882" d="M 87.5 60 Q 86.9 64.6 89.5 66 L 91 66.5 L 89.5 67 Q 85.5 65.5 87.5 60 Z " /><path fill="rgb(27,56,145)" stroke="rgb(27,56,145)" stroke-width="1" opacity="0.03529411764705882" d="M 15.5 77 L 17 78.5 L 16.5 81 Q 12 79 15.5 77 Z " /><path fill="rgb(27,56,145)" stroke="rgb(27,56,145)" stroke-width="1" opacity="0.03529411764705882" d="M 92.5 77 L 91.5 79 L 90 78.5 L 92.5 77 Z " /><path fill="rgb(27,56,145)" stroke="rgb(27,56,145)" stroke-width="1" opacity="0.03529411764705882" d="M 88.5 79 L 91 80.5 L 89 81 L 88.5 83 L 87 80.5 L 88.5 79 Z " /><path fill="rgb(27,56,145)" stroke="rgb(27,56,145)" stroke-width="1" opacity="0.03529411764705882" d="M 26.5 82 L 30 82.5 L 23.5 84 L 23.5 83 L 26.5 82 Z " /><path fill="rgb(27,56,145)" stroke="rgb(27,56,145)" stroke-width="1" opacity="0.03529411764705882" d="M 86.5 82 L 87 84.5 L 86 84.5 L 86.5 82 Z " /><path fill="rgb(27,56,145)" stroke="rgb(27,56,145)" stroke-width="1" opacity="0.03529411764705882" d="M 34.5 83 L 43 83.5 L 34.5 84 L 34.5 83 Z " /><path fill="rgb(27,56,145)" stroke="rgb(27,56,145)" stroke-width="1" opacity="0.03529411764705882" d="M 52.5 83 L 59 83.5 L 52.5 84 L 52.5 83 Z " /><path fill="rgb(27,56,145)" stroke="rgb(27,56,145)" stroke-width="1" opacity="0.03529411764705882" d="M 30.5 84 L 33 84.5 L 30.5 85 L 30.5 84 Z " /><path fill="rgb(27,56,145)" stroke="rgb(27,56,145)" stroke-width="1" opacity="0.03529411764705882" d="M 60.5 84 L 61 86.5 L 60 86.5 L 60.5 84 Z " /><path fill="rgb(27,56,145)" stroke="rgb(27,56,145)" stroke-width="1" opacity="0.03529411764705882" d="M 37.5 85 L 59 85.5 L 37.5 86 L 37.5 85 Z " /><path fill="rgb(27,56,145)" stroke="rgb(27,56,145)" stroke-width="1" opacity="0.03529411764705882" d="M 88.5 85 L 89 86.5 L 84.5 93 L 81.5 94 L 81.5 93 L 83 92.5 L 82.5 91 L 84.5 92 Q 82.6 89.3 88 86.5 L 88.5 85 Z " /><path fill="rgb(27,56,145)" stroke="rgb(27,56,145)" stroke-width="1" opacity="0.03529411764705882" d="M 60.5 89 Q 63.5 90.5 60.5 92 L 60.5 89 Z " /><path fill="rgb(27,56,145)" stroke="rgb(27,56,145)" stroke-width="1" opacity="0.03529411764705882" d="M 71.5 90 L 74.5 91 L 76 90.5 L 76.5 92 Q 77.8 89.8 79 92.5 L 75.5 92 Q 70.9 92.8 71.5 90 Z " /><path fill="rgb(23,169,234)" stroke="rgb(23,169,234)" stroke-width="1" opacity="0.9764705882352941" d="M 76.5 17 L 79 17.5 L 76.5 18 L 76.5 17 Z " /><path fill="rgb(23,169,234)" stroke="rgb(23,169,234)" stroke-width="1" opacity="0.9764705882352941" d="M 16.5 18 L 22.5 20 L 59 20.5 L 49 21.5 L 50 23.5 L 46.5 31 Q 45 28.5 43.5 32 L 41.5 31 L 24.5 35 Q 23.3 32.7 18.5 34 L 18.5 35 L 21 35.5 L 18.5 36 L 15 35 L 15 24.5 L 16.5 18 Z " /><path fill="rgb(23,169,234)" stroke="rgb(23,169,234)" stroke-width="1" opacity="0.9764705882352941" d="M 70.5 18 L 74 18.5 L 70.5 19 L 70.5 18 Z " /><path fill="rgb(23,169,234)" stroke="rgb(23,169,234)" stroke-width="1" opacity="0.9764705882352941" d="M 60.5 19 L 68 19.5 L 60.5 20 L 60.5 19 Z " /><path fill="rgb(23,169,234)" stroke="rgb(23,169,234)" stroke-width="1" opacity="0.9764705882352941" d="M 22.5 36 L 25 36.5 L 22.5 37 L 22.5 36 Z " /><path fill="rgb(23,169,234)" stroke="rgb(23,169,234)" stroke-width="1" opacity="0.9764705882352941" d="M 17.5 37 L 16.5 39 L 17.5 37 Z " /><path fill="rgb(23,169,234)" stroke="rgb(23,169,234)" stroke-width="1" opacity="0.9764705882352941" d="M 26.5 39 L 28 39.5 L 24.5 41 L 24.5 40 L 26.5 39 Z " /><path fill="rgb(23,169,234)" stroke="rgb(23,169,234)" stroke-width="1" opacity="0.9764705882352941" d="M 33.5 40 L 54 41.5 L 35.5 42 L 33.5 40 Z " /><path fill="rgb(21,233,246)" stroke="rgb(21,233,246)" stroke-width="1" opacity="0.03529411764705882" d="M 28.5 9 L 65.5 9 L 76 11.5 L 72.5 13 L 72.5 11 L 63.5 12 L 63.5 11 L 66 10.5 L 28.5 10 L 28.5 11 L 31 11.5 L 27.5 12 Q 26.2 9.7 21.5 11 L 21.5 13 L 18 11.5 L 28.5 9 Z " /><path fill="rgb(21,233,246)" stroke="rgb(21,233,246)" stroke-width="1" opacity="0.03529411764705882" d="M 15.5 12 L 18 13.5 L 16.5 13 L 15 13.5 L 15.5 15 L 14 14.5 L 15 16.5 L 15 33.5 L 14 33.5 L 13.5 16 L 12.5 34 L 12 16.5 L 15.5 12 Z " /><path fill="rgb(21,233,246)" stroke="rgb(21,233,246)" stroke-width="1" opacity="0.03529411764705882" d="M 77.5 12 L 76.5 14 L 77.5 12 Z " /><path fill="rgb(21,233,246)" stroke="rgb(21,233,246)" stroke-width="1" opacity="0.03529411764705882" d="M 80.5 15 Q 82.8 16.8 82 21.5 L 79.5 27 L 80 25.5 L 79 20.5 L 80 20.5 L 80.5 22 L 81 17.5 L 79 17.5 L 80.5 15 Z " /><path fill="rgb(21,233,246)" stroke="rgb(21,233,246)" stroke-width="1" opacity="0.03529411764705882" d="M 80.5 29 L 81 32.5 L 80 32.5 L 80.5 29 Z " /><path fill="rgb(21,233,246)" stroke="rgb(21,233,246)" stroke-width="1" opacity="0.03529411764705882" d="M 12.5 36 L 13 42.5 L 12 42.5 L 12.5 36 Z " /><path fill="rgb(21,233,246)" stroke="rgb(21,233,246)" stroke-width="1" opacity="0.03529411764705882" d="M 80.5 36 L 81.5 38 L 80.5 36 Z " /><path fill="rgb(21,233,246)" stroke="rgb(21,233,246)" stroke-width="1" opacity="0.03529411764705882" d="M 80.5 49 L 81 52.5 L 80 52.5 L 80.5 49 Z " /><path fill="rgb(21,233,246)" stroke="rgb(21,233,246)" stroke-width="1" opacity="0.03529411764705882" d="M 85.5 56 L 86.5 58 L 84 57.5 L 85.5 56 Z " /><path fill="rgb(21,233,246)" stroke="rgb(21,233,246)" stroke-width="1" opacity="0.03529411764705882" d="M 58.5 89 L 59.5 91 L 58.5 89 Z " /><path fill="rgb(47,218,252)" stroke="rgb(47,218,252)" stroke-width="1" opacity="0.9921568627450981" d="M 75.5 16 L 78 16.5 L 75.5 18 L 60.5 19 L 59.5 20 L 22.5 20 L 16.5 18 L 15.5 24 L 15 17 L 20.5 18 L 67.5 18 L 75.5 16 Z " /><path fill="rgb(47,218,252)" stroke="rgb(47,218,252)" stroke-width="1" opacity="0.9921568627450981" d="M 16.5 37 L 21.5 39 L 33 40.5 L 26.5 41 L 17.5 39 L 16.5 37 Z " /><path fill="rgb(29,115,226)" stroke="rgb(29,115,226)" stroke-width="1" opacity="0.48627450980392156" d="M 78.5 28 L 79 35.5 L 78 35.5 L 78.5 28 Z " /><path fill="rgb(29,115,226)" stroke="rgb(29,115,226)" stroke-width="1" opacity="0.48627450980392156" d="M 14.5 37 L 15 42.5 L 14 42.5 L 14.5 37 Z " /><path fill="rgb(29,115,226)" stroke="rgb(29,115,226)" stroke-width="1" opacity="0.48627450980392156" d="M 78.5 38 L 80 40.5 L 79 43.5 L 78.5 55 L 78.5 38 Z " /><path fill="rgb(29,115,226)" stroke="rgb(29,115,226)" stroke-width="1" opacity="0.48627450980392156" d="M 43.5 83 L 52 83.5 L 43.5 84 L 43.5 83 Z " /><path fill="rgb(0,0,0)" stroke="rgb(0,0,0)" stroke-width="1" opacity="0" d="M 0 0 L 94 0 L 94 72.5 L 93 72.5 Q 93.8 68.8 91.5 68 L 87 67 Q 85.2 64.6 86 58.5 L 84.5 57 L 79 55 L 79.5 48 L 80.5 54 L 81 43.5 L 79 36.5 L 79 27.5 L 80 27.5 L 80.5 37 L 81 22.5 L 80 17.5 L 81 15.5 Q 78.7 17.2 76.5 13 L 67 11.5 L 73 10.5 L 66.5 10 L 65.5 11 L 28.5 11 Q 27 8.5 21.5 10 L 21.5 11 L 27 11.5 L 15 14 L 14 16.5 L 14 33.5 L 13 35.5 L 15 35.5 L 14 36.5 L 14 54.5 L 15 56.5 L 14 57.5 L 14 75.5 L 16.5 79 L 22.5 82 L 33.5 83 L 34.5 84 L 58.5 84 L 60 83.5 Q 58.5 89.5 61.5 91 L 67 93.5 L 65.5 94 L 63.5 93 L 62.5 94 L 0 94 L 0 0 Z M 29 9 L 29 10 L 66 10 L 29 9 Z M 19 11 L 19 12 L 21 12 L 19 11 Z M 74 11 L 74 12 L 76 12 L 74 11 Z M 13 16 L 12 34 L 13 34 L 13 16 Z M 82 17 L 81 22 L 82 22 L 82 17 Z M 13 36 L 12 55 L 13 55 L 13 36 Z M 82 37 L 81 43 L 82 43 L 82 37 Z M 13 57 L 12 64 L 13 64 L 13 57 Z M 88 58 L 87 65 L 88 65 L 88 58 Z M 90 66 L 90 67 L 92 67 L 90 66 Z M 24 83 L 24 84 L 26 84 L 24 83 Z M 31 84 L 31 85 L 33 85 L 31 84 Z M 38 85 L 38 86 L 59 86 L 38 85 Z M 59 87 L 58 90 L 59 90 L 59 87 Z " /><path fill="rgb(0,0,0)" stroke="rgb(0,0,0)" stroke-width="1" opacity="0" d="M 93.5 75 L 94 94 L 83.5 94 L 81.5 93 L 80.5 94 L 68.5 94 L 70.5 91 L 74.5 90 L 74.5 91 L 72 91.5 L 75.5 92 Q 77 89.5 78.5 93 Q 85.1 92.1 88 87.5 Q 85.8 86.2 87 81.5 L 93 77.5 L 93.5 75 Z " /><path fill="rgb(150,249,253)" stroke="rgb(150,249,253)" stroke-width="1" opacity="0.7254901960784313" d="M 31.5 11 L 62.5 11 L 63.5 12 L 75.5 13 L 79 15.5 L 78.5 17 L 75.5 16 L 67.5 18 L 20.5 18 L 15 17 L 16.5 14 L 31.5 11 Z " /><path fill="rgb(20,145,227)" stroke="rgb(20,145,227)" stroke-width="1" opacity="0.984313725490196" d="M 74.5 18 L 79 18 L 79 27.5 L 77 37.5 L 77.5 39 L 76.5 36 L 68.5 38 L 58.5 38 L 57.5 39 L 36.5 39 L 35.5 38 L 25 38 Q 26.3 35 22.5 36 L 20.5 37 L 20.5 35 L 17.5 36 L 18.5 34 Q 23.3 32.7 24.5 35 L 41.5 31 L 43.5 32 L 48 29.5 L 50 22.5 L 49.5 21 L 67.5 20 L 74.5 18 Z " /><path fill="rgb(20,145,227)" stroke="rgb(20,145,227)" stroke-width="1" opacity="0.984313725490196" d="M 73.5 38 Q 76.1 37.3 75 40 L 54.5 42 L 53.5 41 L 40 40.5 L 68.5 40 L 73.5 38 Z " /><path fill="rgb(20,145,227)" stroke="rgb(20,145,227)" stroke-width="1" opacity="0.984313725490196" d="M 30.5 41 L 35 41.5 L 30.5 42 L 30.5 41 Z " /><path fill="rgb(20,145,227)" stroke="rgb(20,145,227)" stroke-width="1" opacity="0.984313725490196" d="M 20.5 60 L 23 60.5 L 20.5 61 L 20.5 60 Z " /><path fill="rgb(20,145,227)" stroke="rgb(20,145,227)" stroke-width="1" opacity="0.984313725490196" d="M 72.5 67 L 75 67.5 L 72.5 68 L 72.5 67 Z " /><path fill="rgb(15,89,208)" stroke="rgb(15,89,208)" stroke-width="1" opacity="0.996078431372549" d="M 17.5 36 L 23 37.5 L 19.5 38 L 17.5 36 Z " /><path fill="rgb(15,89,208)" stroke="rgb(15,89,208)" stroke-width="1" opacity="0.996078431372549" d="M 71.5 37 L 75 37.5 L 65.5 40 L 32.5 40 L 32.5 39 L 62.5 39 L 71.5 37 Z " /><path fill="rgb(15,89,208)" stroke="rgb(15,89,208)" stroke-width="1" opacity="0.996078431372549" d="M 24.5 38 L 31 38.5 L 24.5 39 L 24.5 38 Z " /><path fill="rgb(15,89,208)" stroke="rgb(15,89,208)" stroke-width="1" opacity="0.996078431372549" d="M 17 40 L 25.5 42 L 47 43.5 L 44 44.5 L 46 50.5 L 45.5 52 L 52.5 55 L 60.5 51 L 67.5 51 L 71 53 L 72 57 L 76.5 56 L 75.5 58 Q 68.4 59.1 66.5 55 L 60 59.5 L 59.5 61 L 55.5 60 L 54.5 61 L 41.5 61 L 40.5 60 L 23.5 59 L 16 55.5 Q 15.1 45.6 17 40 Z " /><path fill="rgb(15,89,208)" stroke="rgb(15,89,208)" stroke-width="1" opacity="0.996078431372549" d="M 26.5 62 L 29 62.5 L 26.5 63 L 26.5 62 Z " /><path fill="rgb(15,89,208)" stroke="rgb(15,89,208)" stroke-width="1" opacity="0.996078431372549" d="M 42.5 62 L 59 62.5 Q 55.6 65.1 48.5 64 L 43.5 63 L 42.5 64 L 34.5 64 L 34.5 63 Q 40.8 64.7 42.5 62 Z " /><path fill="rgb(15,89,208)" stroke="rgb(15,89,208)" stroke-width="1" opacity="0.996078431372549" d="M 77.5 69 L 80 73.5 L 75.5 79 L 70.5 80 L 68.5 77 L 70.5 78 L 77.5 69 Z " /><path fill="rgb(23,105,219)" stroke="rgb(23,105,219)" stroke-width="1" opacity="0.996078431372549" d="M 19.5 36 L 18.5 38 L 19.5 36 Z " /><path fill="rgb(23,105,219)" stroke="rgb(23,105,219)" stroke-width="1" opacity="0.996078431372549" d="M 74.5 36 Q 76.8 35.3 76 37.5 L 74.5 36 Z " /><path fill="rgb(23,105,219)" stroke="rgb(23,105,219)" stroke-width="1" opacity="0.996078431372549" d="M 23 37 L 25 37.5 L 23 38.5 L 23 37 Z " /><path fill="rgb(23,105,219)" stroke="rgb(23,105,219)" stroke-width="1" opacity="0.996078431372549" d="M 31.5 38 L 36 38.5 L 30.5 40 L 31.5 38 Z " /><path fill="rgb(23,105,219)" stroke="rgb(23,105,219)" stroke-width="1" opacity="0.996078431372549" d="M 58.5 38 L 63 38.5 L 58.5 39 L 58.5 38 Z " /><path fill="rgb(23,105,219)" stroke="rgb(23,105,219)" stroke-width="1" opacity="0.996078431372549" d="M 15 39 L 18 39.5 Q 14.6 45.1 15.5 55 L 15 39 Z " /><path fill="rgb(23,105,219)" stroke="rgb(23,105,219)" stroke-width="1" opacity="0.996078431372549" d="M 66.5 39 L 69 39.5 L 66.5 40 L 66.5 39 Z " /><path fill="rgb(23,105,219)" stroke="rgb(23,105,219)" stroke-width="1" opacity="0.996078431372549" d="M 75.5 39 L 78 39.5 L 78 56 L 72 57 L 71 53 L 67.5 51 L 60.5 51 L 51.5 55 L 48.5 53 L 47 53.5 L 47.5 52 L 45 51.5 L 45 49.5 L 44 44.5 L 47 43.5 L 35 42.5 L 60.5 42 L 75.5 39 Z " /><path fill="rgb(23,105,219)" stroke="rgb(23,105,219)" stroke-width="1" opacity="0.996078431372549" d="M 25.5 41 L 30 41.5 L 25.5 42 L 25.5 41 Z " /><path fill="rgb(23,105,219)" stroke="rgb(23,105,219)" stroke-width="1" opacity="0.996078431372549" d="M 17.5 58 L 16.5 60 L 17.5 58 Z " /><path fill="rgb(23,105,219)" stroke="rgb(23,105,219)" stroke-width="1" opacity="0.996078431372549" d="M 71.5 58 L 75 58.5 L 71.5 59 L 71.5 58 Z " /><path fill="rgb(23,105,219)" stroke="rgb(23,105,219)" stroke-width="1" opacity="0.996078431372549" d="M 23.5 60 L 24.5 62 L 22 61.5 L 23.5 60 Z " /><path fill="rgb(23,105,219)" stroke="rgb(23,105,219)" stroke-width="1" opacity="0.996078431372549" d="M 27.5 61 L 42 62.5 L 29.5 63 L 27.5 61 Z " /><path fill="rgb(23,105,219)" stroke="rgb(23,105,219)" stroke-width="1" opacity="0.996078431372549" d="M 43.5 63 L 48 63.5 L 43.5 64 L 43.5 63 Z " /><path fill="rgb(23,105,219)" stroke="rgb(23,105,219)" stroke-width="1" opacity="0.996078431372549" d="M 70.5 68 L 77 68 L 77 70.5 L 71 77.5 L 71.5 79 L 67 77 Q 65.9 70.3 70.5 68 Z " /><path fill="rgb(24,51,114)" stroke="rgb(24,51,114)" stroke-width="1" opacity="0.8705882352941177" d="M 15.5 59 L 21 63.5 L 22 77.5 L 23 78.5 L 22.5 80 L 24 80.5 L 21.5 81 L 15 76.5 L 15.5 59 Z " /><path fill="rgb(24,51,114)" stroke="rgb(24,51,114)" stroke-width="1" opacity="0.8705882352941177" d="M 25.5 81 L 29 81.5 L 25.5 82 L 25.5 81 Z " /><path fill="rgb(24,51,114)" stroke="rgb(24,51,114)" stroke-width="1" opacity="0.8705882352941177" d="M 30.5 82 L 35 82.5 L 30.5 83 L 30.5 82 Z " /><path fill="rgb(13,52,147)" stroke="rgb(13,52,147)" stroke-width="1" opacity="0.996078431372549" d="M 16.5 56 L 19.5 58 L 30.5 60 L 54.5 61 L 58.5 60 Q 61.3 61.3 60 66.5 L 54 70 L 54 78.5 L 55.5 79 L 60 81 L 59.5 83 L 35.5 83 L 22 79.5 L 22 77.5 Q 23.6 66.9 19.5 62 L 17 60.5 L 18.5 61 L 34.5 64 L 55.5 64 L 59 62.5 L 25.5 61 L 18.5 59 L 16.5 56 Z " /><path fill="rgb(13,52,147)" stroke="rgb(13,52,147)" stroke-width="1" opacity="0.996078431372549" d="M 79.5 74 L 80 75.5 L 77.5 79 L 74.5 80 L 74.5 79 L 79 75.5 L 79.5 74 Z " /><path fill="rgb(138,153,174)" stroke="rgb(138,153,174)" stroke-width="1" opacity="0.9215686274509803" d="M 78.5 55 L 86 58 L 84.5 61 L 83.5 59 L 80.5 65 L 72.5 63 L 72.5 64 Q 79.1 64.4 82 68.5 Q 84.7 70.8 84 76.5 L 79.5 83 L 70 85 L 68 89.5 L 69 91.5 L 66.5 93 L 60 88.5 L 61 82.5 Q 58.9 78.9 54 79 L 54 70.5 L 56.5 70 L 61 63.5 L 60 59 L 67.5 56 Q 68.9 59.6 74.5 59 L 78.5 55 Z M 73 67 L 70 68 Q 66 70 67 77 L 73 81 L 77 80 Q 81 78 80 72 Q 78 67 73 67 Z " /><path fill="rgb(138,153,174)" stroke="rgb(138,153,174)" stroke-width="1" opacity="0.9215686274509803" d="M 15.5 58 L 18 59.5 L 16.5 59 L 15.5 58 Z " /><path fill="rgb(138,153,174)" stroke="rgb(138,153,174)" stroke-width="1" opacity="0.9215686274509803" d="M 85.5 64 L 88 67.5 L 85 65.5 L 85.5 64 Z " /><path fill="rgb(86,101,126)" stroke="rgb(86,101,126)" stroke-width="1" opacity="0.8431372549019608" d="M 83.5 59 L 84.5 61 L 86 60.5 L 85 65.5 Q 87.1 69.9 93 69 L 93 76.5 L 91.5 78 L 87 80.5 L 86 84.5 L 87 87.5 L 79.5 93 Q 77.9 89.1 71.5 90 L 68 92.5 L 69 90.5 L 67 90.5 L 70 85 Q 78.3 85.5 82 80.5 Q 84.7 78.2 84 72.5 L 80.5 67 L 72 63.5 L 75.5 63 L 80.5 65 L 83.5 59 Z " /></svg>