<svg width="96" height="96" version="1.1" xmlns="http://www.w3.org/2000/svg" desc="Created with imagetracer.js version 1.2.6" ><path fill="rgb(113,142,226)" stroke="rgb(113,142,226)" stroke-width="1" opacity="0.00784313725490196" d="M 34.5 10 L 37 10.5 L 34.5 11 L 34.5 10 Z " /><path fill="rgb(113,142,226)" stroke="rgb(113,142,226)" stroke-width="1" opacity="0.00784313725490196" d="M 59.5 10 L 62 10.5 L 59.5 11 L 59.5 10 Z " /><path fill="rgb(113,142,226)" stroke="rgb(113,142,226)" stroke-width="1" opacity="0.00784313725490196" d="M 19.5 15 L 18.5 17 L 19.5 15 Z " /><path fill="rgb(113,142,226)" stroke="rgb(113,142,226)" stroke-width="1" opacity="0.00784313725490196" d="M 76.5 15 L 77.5 17 L 76.5 15 Z " /><path fill="rgb(113,142,226)" stroke="rgb(113,142,226)" stroke-width="1" opacity="0.00784313725490196" d="M 81.5 56 L 83 56.5 L 80.5 58 L 81.5 56 Z " /><path fill="rgb(65,163,238)" stroke="rgb(65,163,238)" stroke-width="1" opacity="0.9647058823529412" d="M 37.5 10 L 58.5 10 Q 59.8 12.3 64.5 11 Q 73.1 12.4 78 17.5 L 75.5 23 L 67.5 26 L 56.5 28 L 39.5 28 L 38.5 27 L 27.5 26 L 18 20.5 Q 17.3 15.8 20.5 15 L 27.5 12 L 37.5 10 Z " /><path fill="rgb(223,224,225)" stroke="rgb(223,224,225)" stroke-width="1" opacity="0.9921568627450981" d="M 74.5 66 Q 81.8 65.2 84 69.5 Q 86.8 72.2 86 78.5 L 82.5 84 Q 79.8 86.8 73.5 86 L 68 82.5 Q 65.2 79.8 66 73.5 L 71.5 67 L 74.5 66 Z M 74 70 Q 69 71 70 79 Q 71 83 79 82 Q 83 81 82 74 Q 81 69 74 70 Z " /><path fill="rgb(0,0,0)" stroke="rgb(0,0,0)" stroke-width="1" opacity="0" d="M 0 0 L 96 0 L 96 71 L 90 68.5 L 89 63.5 L 90 60 L 81.5 56 L 80 59 L 78 58.5 L 78 16.5 L 70.5 12 L 61.5 10 L 34.5 10 L 25.5 12 L 18 16.5 L 18 78.5 L 20.5 81 L 35.5 86 L 60.5 86 L 63 85 L 62 92 L 69 95.5 L 0 96 L 0 0 Z " /><path fill="rgb(0,0,0)" stroke="rgb(0,0,0)" stroke-width="1" opacity="0" d="M 93.5 81 L 96 81.5 L 96 96 L 83 95.5 L 90 92 L 89 85.5 L 91.5 82 L 93.5 81 Z " /><path fill="rgb(0,0,0)" stroke="rgb(0,0,0)" stroke-width="1" opacity="0" d="M 74.5 92 Q 79.6 91.4 81 94.5 L 80.5 96 L 71 96 L 72.5 93 L 74.5 92 Z " /><path fill="rgb(42,123,211)" stroke="rgb(42,123,211)" stroke-width="1" opacity="1" d="M 77.5 21 L 78 38.5 L 75.5 42 L 61.5 47 L 48 48 L 48 28 L 60.5 28 L 72.5 25 L 77.5 21 Z " /><path fill="rgb(42,123,211)" stroke="rgb(42,123,211)" stroke-width="1" opacity="1" d="M 42.5 47 L 47 47.5 L 42.5 48 L 42.5 47 Z " /><path fill="rgb(38,112,202)" stroke="rgb(38,112,202)" stroke-width="1" opacity="1" d="M 62.5 46 L 65 46.5 L 62.5 47 L 62.5 46 Z " /><path fill="rgb(38,112,202)" stroke="rgb(38,112,202)" stroke-width="1" opacity="1" d="M 37.5 47 L 42 47.5 L 37.5 48 L 37.5 47 Z " /><path fill="rgb(38,112,202)" stroke="rgb(38,112,202)" stroke-width="1" opacity="1" d="M 53.5 47 L 58 47.5 L 53.5 48 L 53.5 47 Z " /><path fill="rgb(38,112,202)" stroke="rgb(38,112,202)" stroke-width="1" opacity="1" d="M 71.5 79 L 72.5 81 L 71.5 79 Z " /><path fill="rgb(46,122,212)" stroke="rgb(46,122,212)" stroke-width="1" opacity="1" d="M 18.5 21 L 27.5 26 L 48 28 L 47.5 48 L 46.5 47 L 35.5 47 L 26.5 45 L 19 40.5 L 18 38.5 L 18.5 21 Z " /><path fill="rgb(46,122,212)" stroke="rgb(46,122,212)" stroke-width="1" opacity="1" d="M 57.5 27 L 61 27.5 L 57.5 28 L 57.5 27 Z " /><path fill="rgb(46,122,212)" stroke="rgb(46,122,212)" stroke-width="1" opacity="1" d="M 72.5 71 L 71.5 73 L 72.5 71 Z " /><path fill="rgb(46,122,212)" stroke="rgb(46,122,212)" stroke-width="1" opacity="1" d="M 79.5 71 L 80.5 73 L 79.5 71 Z " /><path fill="rgb(26,90,186)" stroke="rgb(26,90,186)" stroke-width="1" opacity="1" d="M 77.5 40 L 78 58.5 L 74.5 60 L 71 57.5 L 70.5 56 Q 64.8 57.3 62 61.5 L 63 66 L 60.5 67 L 49.5 67 L 48.5 68 L 48 48 L 64.5 47 L 74.5 43 L 77.5 40 Z " /><path fill="rgb(21,90,161)" stroke="rgb(21,90,161)" stroke-width="1" opacity="1" d="M 31.5 66 L 34 66.5 L 31.5 67 L 31.5 66 Z " /><path fill="rgb(21,90,161)" stroke="rgb(21,90,161)" stroke-width="1" opacity="1" d="M 37.5 67 L 41 67.5 L 37.5 68 L 37.5 67 Z " /><path fill="rgb(21,90,161)" stroke="rgb(21,90,161)" stroke-width="1" opacity="1" d="M 55.5 67 L 59 67.5 L 55.5 68 L 55.5 67 Z " /><path fill="rgb(21,90,161)" stroke="rgb(21,90,161)" stroke-width="1" opacity="1" d="M 73.5 71 Q 79.8 69.8 81 73.5 L 82 76.5 L 79.5 81 L 75.5 82 L 71 78.5 L 70 75.5 L 73.5 71 Z " /><path fill="rgb(27,89,181)" stroke="rgb(27,89,181)" stroke-width="1" opacity="1" d="M 18.5 40 L 19 42 Q 29.1 49.3 48 48 L 48 68 L 41.5 68 L 40.5 67 L 29.5 66 L 19 60.5 L 18 58.5 L 18.5 40 Z " /><path fill="rgb(27,89,181)" stroke="rgb(27,89,181)" stroke-width="1" opacity="1" d="M 49.5 67 L 55 67.5 L 49.5 68 L 49.5 67 Z " /><path fill="rgb(114,125,136)" stroke="rgb(114,125,136)" stroke-width="1" opacity="0.9333333333333333" d="M 88.5 64 L 89 66.5 L 88 66.5 L 88.5 64 Z " /><path fill="rgb(114,125,136)" stroke="rgb(114,125,136)" stroke-width="1" opacity="0.9333333333333333" d="M 62.5 68 L 60.5 71 L 62.5 68 Z " /><path fill="rgb(114,125,136)" stroke="rgb(114,125,136)" stroke-width="1" opacity="0.9333333333333333" d="M 89.5 68 Q 90.9 72 96 71 L 96 81 L 92.5 81 Q 88 82 89 88.5 L 90 90.5 Q 87.4 94.4 81.5 95 Q 80.3 90.8 73.5 92 Q 73 95.5 68.5 95 L 66 93.5 L 74.5 86 L 76.5 86 L 80.5 86 L 85 81.5 L 86 74.5 L 90 69.5 L 89.5 68 Z " /><path fill="rgb(114,125,136)" stroke="rgb(114,125,136)" stroke-width="1" opacity="0.9333333333333333" d="M 63.5 91 L 64.5 93 L 63.5 91 Z " /><path fill="rgb(16,63,138)" stroke="rgb(16,63,138)" stroke-width="1" opacity="0.8941176470588236" d="M 18.5 76 L 22.5 81 L 35.5 85 L 47 85.5 L 35.5 86 L 24.5 83 L 18 78.5 L 18.5 76 Z " /><path fill="rgb(16,63,138)" stroke="rgb(16,63,138)" stroke-width="1" opacity="0.8941176470588236" d="M 61.5 84 L 63 84.5 L 60.5 86 L 49.5 86 L 49.5 85 L 60.5 85 L 61.5 84 Z " /><path fill="rgb(16,64,140)" stroke="rgb(16,64,140)" stroke-width="1" opacity="0.9921568627450981" d="M 18.5 60 L 21.5 63 L 31.5 67 Q 36.2 65.8 37.5 68 L 58.5 68 L 62.5 67 L 59.5 71 L 56 71 L 56 81 Q 60.7 80 62 83.5 L 60.5 85 L 49.5 85 L 47.5 86 L 46.5 85 L 30.5 84 L 22.5 81 L 19 77.5 L 18 75.5 L 18.5 60 Z " /><path fill="rgb(132,141,149)" stroke="rgb(132,141,149)" stroke-width="1" opacity="0.9803921568627451" d="M 68.5 57 L 71 57 Q 69.9 59.7 72.5 59 L 76.5 61 L 81.5 57 L 83.5 57 L 90 61.5 L 88 66.5 L 90 70.5 L 86.5 74 L 85 72.5 L 82.5 68 Q 80.2 65.3 74.5 66 L 67 71.5 L 66 78.5 L 69.5 84 L 74 86.5 L 67.5 93 L 65.5 93 L 62 91 Q 63.6 88.9 63 83.5 L 56 79.5 Q 54.3 72.8 57.5 71 Q 62.3 71.8 63 68.5 Q 64.5 63 62 61.5 L 68.5 57 Z " /><path fill="rgb(132,141,149)" stroke="rgb(132,141,149)" stroke-width="1" opacity="0.9803921568627451" d="M 81.5 84 L 80.5 86 L 79 85.5 L 81.5 84 Z " /></svg>