<svg width="96" height="96" version="1.1" xmlns="http://www.w3.org/2000/svg" desc="Created with imagetracer.js version 1.2.6" ><path fill="rgb(0,0,0)" stroke="rgb(0,0,0)" stroke-width="1" opacity="0" d="M 0 0 L 96 0 L 96 96 L 0 96 L 0 0 Z M 89 16 L 85 20 L 4 20 L 2 22 L 2 81 L 4 82 L 89 82 L 90 81 L 90 26 Q 95 24 94 18 Q 93 15 89 16 Z " /><path fill="rgb(28,155,230)" stroke="rgb(28,155,230)" stroke-width="1" opacity="0.996078431372549" d="M 89.5 28 L 90 41 L 81.5 42 L 77.5 44 L 79 41.5 Q 82.6 33.1 89.5 28 Z " /><path fill="rgb(28,155,230)" stroke="rgb(28,155,230)" stroke-width="1" opacity="0.996078431372549" d="M 69.5 29 Q 71.8 28.3 71 30.5 L 55.5 45 L 45.5 49 L 43 51.5 L 42 62 L 20.5 62 L 20 60.5 Q 39.3 39.3 69.5 29 Z " /><path fill="rgb(28,155,230)" stroke="rgb(28,155,230)" stroke-width="1" opacity="0.996078431372549" d="M 15.5 66 L 37 66.5 L 22.5 82 L 5.5 82 L 5 80.5 L 15.5 66 Z " /><path fill="rgb(51,54,56)" stroke="rgb(51,54,56)" stroke-width="1" opacity="0.9803921568627451" d="M 88.5 16 Q 93 15 94 17.5 L 94 21.5 L 69 48.5 L 69 50 L 66.5 50 L 60 43.5 Q 58.9 40.2 61.5 41 L 88.5 16 Z " /><path fill="rgb(25,108,245)" stroke="rgb(25,108,245)" stroke-width="1" opacity="0.996078431372549" d="M 3.5 20 L 58 20.5 Q 26.2 33.7 6 58.5 L 2.5 64 L 2 21.5 L 3.5 20 Z " /><path fill="rgb(25,108,245)" stroke="rgb(25,108,245)" stroke-width="1" opacity="0.996078431372549" d="M 80.5 23 L 78.5 26 L 80.5 23 Z " /><path fill="rgb(25,108,245)" stroke="rgb(25,108,245)" stroke-width="1" opacity="0.996078431372549" d="M 71.5 31 L 69.5 34 L 71.5 31 Z " /><path fill="rgb(25,108,245)" stroke="rgb(25,108,245)" stroke-width="1" opacity="0.996078431372549" d="M 62.5 39 L 61.5 41 L 62.5 39 Z " /><path fill="rgb(32,191,221)" stroke="rgb(32,191,221)" stroke-width="1" opacity="0.996078431372549" d="M 86.5 46 L 90 46.5 L 90 80.5 L 88.5 82 L 30 82 L 30 80.5 L 43.5 67 Q 48.6 69.4 57.5 68 L 62 64.5 Q 63.2 54.7 70.5 51 L 86.5 46 Z " /><path fill="rgb(27,136,236)" stroke="rgb(27,136,236)" stroke-width="1" opacity="0.996078431372549" d="M 58.5 20 L 84 20.5 L 64.5 38 L 71 30.5 Q 71.8 28.3 69.5 29 Q 39.3 39.3 20 60.5 L 19.5 62 L 12 62 L 12 66 L 15 66.5 L 6 78.5 L 5 82 L 2 80.5 L 2 64.5 L 3 62.5 L 23.5 41 Q 38.7 28.2 58.5 20 Z " /><path fill="rgb(27,136,236)" stroke="rgb(27,136,236)" stroke-width="1" opacity="0.996078431372549" d="M 89.5 26 L 90 27.5 L 88 28.5 L 89.5 26 Z " /><path fill="rgb(37,166,214)" stroke="rgb(37,166,214)" stroke-width="1" opacity="1" d="M 78.5 41 L 69.5 51 L 78.5 41 Z " /><path fill="rgb(37,166,214)" stroke="rgb(37,166,214)" stroke-width="1" opacity="1" d="M 58.5 43 L 55.5 47 L 58.5 43 Z " /><path fill="rgb(37,166,214)" stroke="rgb(37,166,214)" stroke-width="1" opacity="1" d="M 62.5 46 L 67 50.5 L 64 53.5 Q 64.8 55.8 62.5 55 Q 58.5 54.5 59 49.5 L 62.5 46 Z " /><path fill="rgb(29,161,210)" stroke="rgb(29,161,210)" stroke-width="1" opacity="1" d="M 82.5 21 L 81.5 23 L 82.5 21 Z " /><path fill="rgb(29,161,210)" stroke="rgb(29,161,210)" stroke-width="1" opacity="1" d="M 88.5 27 L 88 28.5 L 81 38.5 L 64 56.5 L 61.5 63 L 61 61.5 L 64 53.5 L 67.5 50 L 70 48.5 L 88.5 27 Z " /><path fill="rgb(29,161,210)" stroke="rgb(29,161,210)" stroke-width="1" opacity="1" d="M 64.5 36 L 64 37.5 Q 64.8 39.8 62.5 39 L 60 43 L 54.5 47 L 50.5 48 L 50.5 47 Q 60.2 44.2 64.5 36 Z " /><path fill="rgb(29,161,210)" stroke="rgb(29,161,210)" stroke-width="1" opacity="1" d="M 45.5 49 L 44 51.5 L 44 61.5 L 42 62 L 43 51.5 L 45.5 49 Z " /><path fill="rgb(29,161,210)" stroke="rgb(29,161,210)" stroke-width="1" opacity="1" d="M 60.5 64 L 59.5 66 L 60.5 64 Z " /><path fill="rgb(29,161,210)" stroke="rgb(29,161,210)" stroke-width="1" opacity="1" d="M 45.5 66 L 58 66.5 L 45.5 67 L 45.5 66 Z " /><path fill="rgb(36,176,214)" stroke="rgb(36,176,214)" stroke-width="1" opacity="1" d="M 86.5 41 L 90 41 L 90 46 L 72.5 50 L 64.5 57 L 76.5 44 L 86.5 41 Z " /><path fill="rgb(36,176,214)" stroke="rgb(36,176,214)" stroke-width="1" opacity="1" d="M 61.5 60 L 63 62.5 L 59.5 67 L 57.5 68 L 46.5 68 L 46.5 67 L 57.5 67 L 58 65.5 L 61 64.5 L 60.5 63 Q 62.8 63.8 62 61.5 L 61.5 60 Z " /><path fill="rgb(36,176,214)" stroke="rgb(36,176,214)" stroke-width="1" opacity="1" d="M 37.5 66 L 45 66.5 L 30 80.5 Q 30.5 83.5 23.5 82 L 26 78.5 L 37.5 66 Z " /><path fill="rgb(229,231,232)" stroke="rgb(229,231,232)" stroke-width="1" opacity="1" d="M 59.5 43 L 62 46.5 Q 58.5 47 59 51.5 L 63 55.5 L 62 56.5 L 61 62.5 L 57.5 66 L 13.5 66 L 12 64.5 L 13.5 62 L 43.5 62 L 44 61.5 L 44 52.5 L 47.5 49 L 55.5 47 L 59.5 43 Z " /></svg>